<?xml version="1.0" standalone="no"?>
<!DOCTYPE svg PUBLIC "-//W3C//DTD SVG 20010904//EN"
 "http://www.w3.org/TR/2001/REC-SVG-20010904/DTD/svg10.dtd">
<svg version="1.0" xmlns="http://www.w3.org/2000/svg"
 width="80%" height="80%" viewBox="0 0 336.000000 400.000000"
 preserveAspectRatio="xMidYMid meet">

<g transform="translate(0.000000,400.000000) scale(0.100000,-0.100000)" stroke="none">
<path d="M2093 3984 c-4 -12 -14 -14 -35 -10 -24 5 -31 2 -35 -13 -3 -12 -15
-21 -32 -23 -22 -3 -26 -7 -23 -30 2 -22 -2 -29 -23 -34 -23 -6 -25 -10 -20
-35 5 -21 2 -31 -9 -35 -20 -8 -21 -33 0 -41 11 -4 13 -13 9 -35 -6 -24 -3
-30 13 -35 13 -3 22 -15 24 -32 3 -22 7 -26 31 -23 21 2 27 -1 27 -17 0 -26
17 -36 36 -20 12 10 19 8 38 -10 l23 -22 16 23 c13 20 18 21 36 10 19 -11 22
-10 31 13 7 18 16 24 32 22 18 -1 24 4 26 24 2 17 11 29 24 32 17 5 19 11 14
33 -5 18 -2 32 9 44 14 15 14 18 0 30 -11 9 -14 22 -9 46 5 30 4 34 -14 34
-15 0 -22 7 -24 28 -2 21 -8 27 -26 26 -16 0 -24 6 -28 23 -7 25 -16 28 -44
13 -15 -8 -21 -6 -30 10 -13 24 -28 26 -37 4z m82 -94 c128 -79 40 -275 -103
-232 -55 17 -84 52 -89 109 -10 109 100 180 192 123z"/>
<path d="M1178 3683 c-9 -2 -24 -25 -33 -53 -18 -55 -28 -62 -79 -50 -31 7
-40 5 -56 -13 -24 -26 -24 -25 0 -65 29 -47 25 -68 -15 -94 -41 -27 -47 -40
-35 -73 6 -17 20 -26 44 -30 51 -10 67 -32 56 -79 -7 -31 -5 -41 11 -57 24
-24 30 -24 73 2 43 25 64 20 95 -26 13 -19 30 -35 38 -35 24 0 53 20 53 36 0
8 7 29 16 46 15 29 18 30 65 25 44 -6 51 -4 65 19 16 23 15 27 -7 70 l-24 46
45 38 c40 36 43 42 35 66 -7 20 -20 30 -45 37 -55 14 -63 25 -57 80 4 42 1 50
-19 64 -22 14 -27 13 -59 -6 -51 -30 -69 -26 -99 19 -26 39 -33 42 -68 33z
m105 -204 c50 -23 62 -95 22 -134 -40 -41 -105 -33 -130 16 -22 42 -18 67 14
100 31 31 55 36 94 18z"/>
<path d="M1782 3643 c-18 -25 -21 -26 -50 -14 -44 18 -60 9 -64 -36 -3 -35 -6
-38 -38 -43 -39 -6 -53 -37 -25 -60 21 -18 19 -46 -6 -64 -29 -20 -17 -52 23
-60 28 -6 30 -8 25 -39 -7 -46 3 -57 48 -54 33 2 42 -2 50 -20 15 -35 37 -38
62 -6 21 26 24 27 58 14 41 -15 70 -1 60 29 -8 25 5 50 25 50 48 0 67 33 35
60 -20 17 -19 33 5 55 25 22 26 54 3 61 -40 12 -48 22 -48 60 l0 39 -42 -3
c-35 -2 -44 2 -54 20 -23 45 -40 47 -67 11z m78 -105 c61 -42 65 -127 8 -180
-43 -40 -95 -39 -143 3 -32 28 -35 36 -35 83 1 100 89 148 170 94z"/>
<path d="M2282 3618 c-7 -7 -12 -18 -12 -26 0 -8 -8 -30 -17 -49 -16 -35 -17
-35 -67 -30 -28 3 -57 7 -64 9 -8 1 -23 -9 -34 -24 l-21 -27 22 -41 c31 -60
28 -76 -24 -108 -43 -26 -46 -29 -43 -67 3 -37 6 -41 43 -53 22 -7 48 -21 59
-31 17 -17 17 -24 6 -72 -13 -52 -12 -53 14 -76 l27 -23 39 20 c63 32 85 27
116 -25 23 -41 29 -45 64 -45 36 0 38 2 56 52 25 67 39 76 103 59 49 -12 52
-12 71 11 25 30 25 38 -2 89 -25 49 -21 61 40 102 63 42 55 89 -18 117 -60 23
-63 28 -56 94 5 47 3 63 -11 78 -20 22 -52 23 -79 3 -10 -8 -33 -15 -51 -15
-27 0 -35 7 -57 45 -23 39 -31 45 -59 45 -18 0 -38 -5 -45 -12z m144 -259 c52
-49 38 -130 -29 -163 -32 -15 -42 -16 -68 -6 -81 34 -94 133 -24 181 37 25 87
20 121 -12z"/>
<path d="M3022 3605 c-13 -28 -23 -31 -51 -13 -26 16 -51 3 -51 -27 0 -25 -3
-26 -37 -23 -36 3 -38 2 -39 -27 -1 -41 -10 -55 -40 -55 -19 0 -24 -5 -24 -24
0 -14 5 -28 10 -31 18 -11 10 -35 -15 -45 -32 -12 -32 -34 1 -49 20 -9 25 -17
20 -31 -3 -11 -9 -29 -12 -40 -4 -14 -1 -21 12 -26 40 -12 48 -21 48 -55 1
-32 3 -34 36 -34 29 0 36 -4 38 -23 5 -30 27 -38 59 -21 23 12 27 11 43 -9 23
-28 37 -28 59 -1 14 18 21 20 39 10 34 -18 50 -13 57 19 6 28 10 30 43 28 37
-3 37 -3 35 35 -2 34 0 38 27 43 35 7 46 31 25 54 -21 23 -19 35 10 48 32 15
32 31 -2 58 -27 21 -27 23 -10 42 23 25 13 48 -23 56 -27 5 -29 9 -27 43 2 38
2 38 -35 35 -33 -2 -37 0 -43 28 -7 32 -23 37 -54 18 -22 -13 -51 3 -51 28 0
24 -36 15 -48 -11z m119 -120 c60 -38 82 -85 77 -159 -3 -51 -10 -71 -32 -101
-29 -38 -99 -75 -141 -75 -34 0 -106 34 -132 61 -27 30 -53 90 -53 123 0 67
69 159 128 172 15 3 32 7 37 9 24 6 83 -9 116 -30z"/>
<path d="M603 3143 c-28 -38 -64 -90 -80 -118 -56 -97 -145 -316 -203 -500
-16 -49 -65 -196 -110 -325 -45 -129 -92 -266 -105 -305 -13 -38 -42 -122 -64
-187 -23 -64 -41 -119 -41 -122 0 -16 55 -27 221 -42 101 -9 198 -22 216 -29
26 -11 39 -28 70 -97 115 -254 225 -429 335 -533 92 -88 131 -102 315 -116
171 -13 180 -15 193 -38 10 -19 31 -226 51 -501 14 -193 20 -218 62 -225 18
-3 292 -5 609 -3 438 2 580 6 589 15 10 10 9 49 -4 185 -50 506 -60 640 -52
676 5 23 32 49 123 118 289 217 458 459 565 809 26 86 46 216 49 318 l3 99
-62 25 c-48 19 -65 32 -77 58 -33 68 -18 96 77 140 35 16 37 20 37 64 0 47 -1
48 -47 71 -70 34 -103 59 -103 78 0 9 12 40 25 67 32 64 31 78 -3 116 l-28 32
-68 -13 c-63 -13 -68 -13 -87 6 -11 12 -23 44 -29 79 -5 32 -14 63 -19 68 -5
5 -27 11 -50 14 -39 5 -44 3 -96 -46 -29 -28 -60 -51 -67 -51 -8 0 -35 22 -62
49 -43 44 -51 48 -79 41 -61 -15 -64 -18 -70 -79 -4 -32 -9 -66 -13 -75 -10
-27 -46 -35 -110 -27 -71 10 -73 9 -100 -32 l-22 -33 34 -68 c35 -72 34 -106
-4 -106 -32 0 -137 46 -139 61 -10 80 -13 85 -51 98 -88 31 -102 42 -102 74 0
18 10 55 22 85 l22 53 -35 35 -35 35 -62 -16 c-34 -9 -72 -13 -83 -10 -23 7
-49 60 -49 98 0 35 -21 57 -64 67 -37 8 -41 7 -70 -27 -56 -65 -66 -73 -90
-73 -13 0 -48 19 -77 42 l-52 41 -41 -14 -41 -14 -6 -65 c-7 -72 -16 -100 -32
-100 -6 0 -115 39 -241 86 -373 138 -418 154 -430 154 -7 0 -35 -30 -63 -67z
m1153 -258 c76 -37 151 -127 92 -110 -23 7 -164 58 -268 98 l-55 21 40 13 c54
17 128 9 191 -22z m1120 -42 c94 -31 179 -105 225 -195 32 -60 39 -199 14
-266 -10 -26 -21 -51 -25 -55 -4 -5 -157 47 -339 114 -370 138 -350 124 -307
214 72 156 272 242 432 188z m-2055 -314 c108 -36 152 -166 89 -261 -40 -60
-85 -81 -159 -76 -69 5 -113 33 -141 88 -72 142 61 299 211 249z"/>
</g>
</svg>
